<?xml version="1.0" encoding="UTF-8" standalone="no"?>
<!-- Created with Inkscape (http://www.inkscape.org/) -->

<svg
   xmlns:dc="http://purl.org/dc/elements/1.1/"
   xmlns:cc="http://creativecommons.org/ns#"
   xmlns:rdf="http://www.w3.org/1999/02/22-rdf-syntax-ns#"
   xmlns:svg="http://www.w3.org/2000/svg"
   xmlns="http://www.w3.org/2000/svg"
   xmlns:sodipodi="http://sodipodi.sourceforge.net/DTD/sodipodi-0.dtd"
   xmlns:inkscape="http://www.inkscape.org/namespaces/inkscape"
   width="16.586418mm"
   height="37.005325mm"
   viewBox="0 0 16.586418 37.005325"
   version="1.1"
   id="svg1208"
   inkscape:version="0.92.5 (2060ec1f9f, 2020-04-08)"
   sodipodi:docname="logo.svg">
  <defs
     id="defs1202" />
  <sodipodi:namedview
     id="base"
     pagecolor="#ffffff"
     bordercolor="#666666"
     borderopacity="1.0"
     inkscape:pageopacity="0.0"
     inkscape:pageshadow="2"
     inkscape:zoom="0.7"
     inkscape:cx="-195.41104"
     inkscape:cy="66.998293"
     inkscape:document-units="mm"
     inkscape:current-layer="layer1"
     showgrid="false"
     fit-margin-top="0"
     fit-margin-left="0"
     fit-margin-right="0"
     fit-margin-bottom="0"
     inkscape:window-width="1366"
     inkscape:window-height="704"
     inkscape:window-x="0"
     inkscape:window-y="27"
     inkscape:window-maximized="1" />
  <metadata
     id="metadata1205">
    <rdf:RDF>
      <cc:Work
         rdf:about="">
        <dc:format>image/svg+xml</dc:format>
        <dc:type
           rdf:resource="http://purl.org/dc/dcmitype/StillImage" />
        <dc:title></dc:title>
      </cc:Work>
    </rdf:RDF>
  </metadata>
  <g
     inkscape:label="Layer 1"
     inkscape:groupmode="layer"
     id="layer1"
     transform="translate(-21.944896,-35.080668)">
    <path
       d="m 25.101963,46.881534 c 0.124496,-0.370772 0.407483,-0.657826 0.615966,-0.975767 0.105264,-0.157952 0.198866,-0.327693 0.226231,-0.509625 0.02899,-0.1799 -0.02478,-0.366031 -0.076,-0.548911 -0.109872,-0.36576 -0.250072,-0.725966 -0.379578,-1.08983 -0.130992,-0.363592 -0.257117,-0.730301 -0.36725,-1.103104 -0.215664,-0.745474 -0.370908,-1.520343 -0.36576,-2.311603 0.0038,-0.395157 0.04917,-0.791804 0.15376,-1.179509 0.10296,-0.382963 0.256981,-0.754955 0.452324,-1.101344 0.390009,-0.695079 0.94339,-1.293299 1.589566,-1.755514 0.645363,-0.464649 1.379592,-0.800742 2.147552,-1.001233 0.768232,-0.201845 1.57033,-0.262128 2.359424,-0.202522 0.786518,0.06014 1.564368,0.218237 2.311738,0.472643 0.74588,0.257386 1.461414,0.613935 2.105152,1.078856 0.642518,0.464245 1.212563,1.040114 1.645243,1.710403 0.434035,0.668935 0.727998,1.424703 0.878773,2.202146 0.07586,0.388925 0.118128,0.783133 0.129376,1.177205 0.01088,0.395157 -0.01056,0.786656 -0.04728,1.176121 -0.07803,0.774871 -0.237202,1.573988 -0.656336,2.264733 -0.207535,0.343408 -0.479688,0.644551 -0.780288,0.89977 -0.3006,0.256302 -0.62396,0.474945 -0.945557,0.688576 -0.647803,0.419405 -1.282058,0.851001 -1.848986,1.370787 -0.567469,0.516941 -1.075605,1.100397 -1.529825,1.724491 0.41778,-0.648886 0.900312,-1.260248 1.455996,-1.802792 0.551079,-0.547283 1.180186,-1.012883 1.810106,-1.456944 0.313877,-0.223113 0.627075,-0.444057 0.907627,-0.696297 0.281093,-0.250749 0.52561,-0.536176 0.710251,-0.858452 0.371856,-0.646448 0.508407,-1.406956 0.565573,-2.160694 0.05568,-0.759968 0.03373,-1.519259 -0.119616,-2.256061 -0.1524,-0.735313 -0.437422,-1.440281 -0.851816,-2.061803 -0.412089,-0.622741 -0.94515,-1.163253 -1.555291,-1.598778 -0.609736,-0.437016 -1.291946,-0.773244 -2.004907,-1.017084 -1.424839,-0.482938 -2.987853,-0.653492 -4.444527,-0.282448 -0.727184,0.180171 -1.423619,0.488764 -2.036604,0.91887 -0.611632,0.430243 -1.143069,0.979154 -1.526032,1.621536 -0.191144,0.321328 -0.343274,0.664194 -0.449208,1.024128 -0.105264,0.355466 -0.158224,0.730301 -0.170824,1.106357 -0.02384,0.754957 0.110128,1.513704 0.301278,2.25403 0.09414,0.371314 0.20469,0.739512 0.32092,1.106627 0.114736,0.368063 0.240725,0.73301 0.338397,1.110692 0.04416,0.187214 0.09578,0.386892 0.05581,0.591312 -0.03915,0.20076 -0.145088,0.374158 -0.259555,0.530352 -0.22948,0.312249 -0.521818,0.577492 -0.665818,0.94068"
       style="fill:#211c1d;fill-opacity:1;fill-rule:nonzero;stroke:none;stroke-width:0.01354667"
       id="path888"
       inkscape:connector-curvature="0" />
    <path
       d="m 27.926171,49.63503 c -0.2456,-0.04634 -0.48348,-0.123008 -0.711335,-0.221084 -0.229345,-0.09563 -0.448936,-0.21336 -0.660806,-0.344219 -0.209162,-0.134784 -0.412632,-0.280958 -0.593886,-0.453406 -0.09035,-0.08643 -0.17868,-0.174754 -0.261722,-0.267818 -0.07803,-0.09821 -0.15728,-0.194125 -0.220675,-0.302361 l -6.91e-4,-0.0012 c -0.0019,-0.003 -8.07e-4,-0.0072 0.0022,-0.0093 0.0029,-0.0015 0.0062,-9.22e-4 0.0083,0.0013 0.331352,0.36034 0.724068,0.659587 1.138326,0.918193 0.413445,0.260503 0.850189,0.486867 1.304814,0.667037 0.0034,0.0015 0.0051,0.0053 0.0037,0.0088 -0.0011,0.003 -0.0043,0.0046 -0.0074,0.0042 l -0.0011,-3.04e-4"
       style="fill:#211c1d;fill-opacity:1;fill-rule:nonzero;stroke:none;stroke-width:0.01354667"
       id="path890"
       inkscape:connector-curvature="0" />
    <path
       d="m 28.966691,50.044002 c -0.41209,-0.147392 -0.835559,-0.200625 -1.228141,-0.139536 -0.392718,0.06394 -0.744659,0.249799 -1.042144,0.514909 -0.305072,0.279874 -0.610685,0.582101 -0.899499,0.889743 -0.1444,0.15592 -0.284887,0.316585 -0.441893,0.476574 -0.08101,0.07707 -0.167301,0.156064 -0.26863,0.213493 -0.100784,0.05826 -0.210922,0.09293 -0.32038,0.105264 0.1967,-0.108368 0.327018,-0.261858 0.433765,-0.444058 0.111904,-0.178549 0.221759,-0.370637 0.350181,-0.550131 0.253594,-0.365626 0.546202,-0.691288 0.877824,-0.995814 0.345442,-0.309543 0.81104,-0.522226 1.284496,-0.524799 0.469933,-0.0085 0.925373,0.159856 1.254421,0.454354"
       style="fill:#211c1d;fill-opacity:1;fill-rule:nonzero;stroke:none;stroke-width:0.01354667"
       id="path892"
       inkscape:connector-curvature="0" />
    <path
       d="m 31.044884,50.476546 c 0.170418,-0.206041 0.383508,-0.37822 0.630735,-0.504748 0.246006,-0.127072 0.533061,-0.198592 0.829056,-0.188975 0.295857,0.01216 0.587246,0.114064 0.838537,0.263618 0.126528,0.07437 0.242485,0.163238 0.349775,0.25847 0.107696,0.09496 0.2074,0.200762 0.295589,0.29437 0.367385,0.382694 0.69982,0.802776 1.010716,1.242363 0.303039,0.44501 0.56896,0.92104 0.783269,1.425654 0.202792,0.508538 0.3556,1.046074 0.411275,1.600941 0.04917,0.553791 0.01883,1.121938 -0.133296,1.656762 -0.142096,0.536851 -0.391769,1.035097 -0.701716,1.476179 -0.315911,0.438099 -0.687901,0.824856 -1.106629,1.145504 l -0.0026,0.0015 c -0.0088,0.0069 -0.02141,0.0051 -0.0283,-0.0038 -0.0061,-0.008 -0.0053,-0.01923 0.0016,-0.02627 0.721902,-0.740326 1.307389,-1.645514 1.525761,-2.662461 0.110944,-0.505155 0.13032,-1.02887 0.06584,-1.541609 -0.06366,-0.513152 -0.208619,-1.014509 -0.407619,-1.491895 -0.393801,-0.959785 -0.993512,-1.823248 -1.662718,-2.615454 -0.164863,-0.200629 -0.343136,-0.388114 -0.555955,-0.533469 -0.210922,-0.14536 -0.453407,-0.247634 -0.708084,-0.276488 -0.513283,-0.06069 -1.028192,0.168518 -1.407092,0.508813 -0.0083,0.0075 -0.02114,0.0069 -0.02859,-0.0015 -0.0069,-0.0075 -0.0069,-0.01882 -6.92e-4,-0.02658 l 9.6e-4,-7.68e-4"
       style="fill:#211c1d;fill-opacity:1;fill-rule:nonzero;stroke:none;stroke-width:0.01354667"
       id="path894"
       inkscape:connector-curvature="0" />
    <path
       d="m 24.33468,55.857961 c -0.274184,-0.04322 -0.535229,-0.159312 -0.770807,-0.309677 -0.236525,-0.150768 -0.4488,-0.340834 -0.631816,-0.555686 -0.363728,-0.434036 -0.604587,-0.960999 -0.751976,-1.503679 -0.143872,-0.542542 -0.231782,-1.099584 -0.235169,-1.667731 -0.0016,-0.565435 0.116368,-1.150245 0.390686,-1.658246 0.132352,-0.25305 0.306426,-0.484564 0.428074,-0.707405 0.116096,-0.226637 0.189654,-0.494861 0.272966,-0.756311 0.08237,-0.263483 0.163914,-0.530488 0.267546,-0.793971 0.106336,-0.260637 0.223113,-0.530893 0.453001,-0.745744 0.05853,-0.05189 0.125984,-0.09862 0.202928,-0.130176 0.01898,-0.0083 0.03888,-0.01456 0.05878,-0.02114 l 0.04971,-0.0144 0.101472,-0.02859 c 0.135328,-0.0367 0.272559,-0.07003 0.412496,-0.0932 0.277842,-0.04634 0.574784,-0.06488 0.856555,0.02302 0.06963,0.02235 0.137232,0.05094 0.201168,0.08616 0.068,0.03861 0.125168,0.0867 0.174752,0.142784 0.09781,0.111632 0.162154,0.254541 0.164186,0.404096 0.004,0.150096 -0.07248,0.295725 -0.18735,0.381203 -0.114736,0.08725 -0.251562,0.130048 -0.387029,0.154032 0.13248,-0.03698 0.262536,-0.09362 0.360613,-0.185182 0.100112,-0.08874 0.154832,-0.218914 0.141968,-0.346795 -0.01104,-0.127888 -0.07627,-0.248175 -0.166895,-0.337176 -0.0451,-0.04456 -0.09862,-0.0821 -0.153072,-0.107968 -0.05934,-0.02709 -0.121248,-0.04822 -0.18464,-0.06339 -0.253729,-0.06354 -0.524528,-0.03496 -0.786113,0.02344 -0.131264,0.02979 -0.261858,0.06584 -0.391634,0.106752 l -0.09699,0.0313 -0.04917,0.01626 c -0.01264,0.005 -0.0256,0.0093 -0.03806,0.01552 -0.05026,0.0229 -0.09726,0.05744 -0.140208,0.09875 -0.171907,0.171637 -0.28028,0.425773 -0.374837,0.67503 -0.09293,0.253323 -0.16703,0.517077 -0.243297,0.782863 -0.07938,0.265649 -0.150768,0.534822 -0.282991,0.803316 -0.142368,0.262807 -0.302497,0.475354 -0.424688,0.713776 -0.256845,0.466138 -0.36603,0.996492 -0.374024,1.534023 -0.01152,0.537937 0.06787,1.082649 0.183423,1.613137 0.124624,0.525746 0.327558,1.038485 0.651323,1.473604 0.318211,0.434715 0.7662,0.793835 1.299126,0.94732"
       style="fill:#211c1d;fill-opacity:1;fill-rule:nonzero;stroke:none;stroke-width:0.01354667"
       id="path896"
       inkscape:connector-curvature="0" />
    <path
       d="m 24.031235,48.047361 c 0.175157,-0.191957 0.427939,-0.334875 0.720817,-0.33948 0.14576,-0.0042 0.295588,0.0424 0.422656,0.1184 0.127744,0.07722 0.228532,0.185995 0.308456,0.301142 0.08034,0.1184 0.136688,0.238421 0.185456,0.364675 0.04498,0.126528 0.08819,0.257794 0.09592,0.401524 0.004,0.07139 0.003,0.146032 -0.01747,0.22054 -0.0199,0.0737 -0.05893,0.147936 -0.117584,0.20049 -0.122592,0.104176 -0.276622,0.110544 -0.400304,0.07451 0.126928,-0.02154 0.248717,-0.07546 0.301415,-0.163509 0.05486,-0.08453 0.04877,-0.193581 0.02451,-0.303309 -0.02805,-0.109456 -0.06896,-0.22176 -0.122592,-0.330268 -0.05216,-0.108096 -0.107968,-0.218914 -0.172584,-0.311167 -0.128832,-0.190059 -0.300059,-0.33108 -0.521141,-0.362915 -0.220946,-0.03278 -0.469662,0.02845 -0.707542,0.129376"
       style="fill:#211c1d;fill-opacity:1;fill-rule:nonzero;stroke:none;stroke-width:0.01354667"
       id="path898"
       inkscape:connector-curvature="0" />
    <path
       d="m 23.983278,48.989665 c 0.114736,-0.129504 0.273779,-0.230157 0.464109,-0.25752 0.09483,-0.012 0.196427,8.06e-4 0.289086,0.03739 0.09347,0.03603 0.173669,0.09726 0.24208,0.16432 0.137632,0.136144 0.222571,0.304121 0.292743,0.469256 0.06544,0.165 0.1184,0.336771 0.147248,0.520734 0.01168,0.0928 0.01626,0.188978 0.0037,0.289627 -0.0128,0.09944 -0.04443,0.209162 -0.1188,0.300464 -0.0737,0.09198 -0.18464,0.148736 -0.288408,0.168384 -0.105264,0.02112 -0.205909,0.01344 -0.302634,-0.01168 -0.02493,-0.0069 -0.04701,-0.0128 -0.07558,-0.02534 -0.0088,-0.0038 -0.03306,-0.01584 -0.04403,-0.02358 -0.01264,-0.0083 -0.02451,-0.01693 -0.03509,-0.02614 -0.04376,-0.03656 -0.07464,-0.07722 -0.10024,-0.119072 -0.05053,-0.08373 -0.08264,-0.170008 -0.105936,-0.257521 -0.04131,-0.174618 -0.05405,-0.359122 -9.6e-4,-0.526424 0.0072,0.172585 0.05595,0.334737 0.126256,0.481584 0.06746,0.14184 0.171907,0.292608 0.278248,0.289355 0.143728,0.0172 0.289899,-0.01568 0.345846,-0.107296 0.06544,-0.08765 0.07328,-0.243702 0.04946,-0.395424 -0.01923,-0.154848 -0.06584,-0.312251 -0.1184,-0.467768 -0.04998,-0.153488 -0.119216,-0.297891 -0.209702,-0.417914 -0.09226,-0.117584 -0.216475,-0.20198 -0.370094,-0.210785 -0.153072,-0.01232 -0.31862,0.0424 -0.468852,0.125312"
       style="fill:#211c1d;fill-opacity:1;fill-rule:nonzero;stroke:none;stroke-width:0.01354667"
       id="path900"
       inkscape:connector-curvature="0" />
    <path
       d="m 25.697339,49.14586 c 0.223656,-0.08616 0.445142,-0.08291 0.677469,0.0176 0.11352,0.05446 0.240316,0.144816 0.32539,0.318752 0.04158,0.08574 0.06123,0.19155 0.05797,0.290848 -0.0032,0.09944 -0.03942,0.213358 -0.09022,0.295723 -0.107424,0.167032 -0.237336,0.243975 -0.352077,0.296128 -0.116912,0.05026 -0.228397,0.07384 -0.338125,0.08195 -0.218913,0.0112 -0.429294,-0.02208 -0.634932,-0.143184 l -0.0104,-0.0062 c -0.0088,-0.0051 -0.01184,-0.01651 -0.0066,-0.02534 0.0029,-0.005 0.0078,-0.0082 0.01296,-0.009 0.182609,-0.02883 0.364947,-0.06949 0.539699,-0.125584 0.169741,-0.05893 0.351942,-0.137232 0.442163,-0.279737 0.04403,-0.06827 0.05026,-0.15728 0.02114,-0.234629 -0.02966,-0.07803 -0.09226,-0.144544 -0.16283,-0.199271 -0.144544,-0.106752 -0.317399,-0.181796 -0.49188,-0.238691 -0.0098,-0.0032 -0.01504,-0.01376 -0.01184,-0.02357 0.0016,-0.0056 0.0059,-0.0096 0.01104,-0.01168 l 0.01104,-0.0042"
       style="fill:#211c1d;fill-opacity:1;fill-rule:nonzero;stroke:none;stroke-width:0.01354667"
       id="path902"
       inkscape:connector-curvature="0" />
    <path
       d="m 24.52623,50.475191 c 0.05622,0.11976 0.07546,0.244927 0.07979,0.370776 0.0021,0.125712 -0.01472,0.253594 -0.06123,0.379303 -0.04646,0.122192 -0.126112,0.25766 -0.274862,0.328508 -0.07315,0.03467 -0.158496,0.03832 -0.228127,0.02019 -0.07003,-0.02128 -0.1272,-0.05771 -0.170416,-0.108368 0.133568,-0.003 0.235306,-0.03226 0.286919,-0.09334 0.05568,-0.05744 0.09578,-0.144672 0.132896,-0.242076 0.03645,-0.09766 0.06909,-0.204151 0.104448,-0.313879 0.03712,-0.11 0.07384,-0.222843 0.130592,-0.341102"
       style="fill:#211c1d;fill-opacity:1;fill-rule:nonzero;stroke:none;stroke-width:0.01354667"
       id="path904"
       inkscape:connector-curvature="0" />
    <path
       d="m 24.86178,50.682998 c 0.02302,0.09578 -0.012,0.185862 -0.07328,0.256032 -0.03278,0.03344 -0.07288,0.06286 -0.12056,0.07614 -0.04659,0.01408 -0.0989,0.01248 -0.141696,-0.0128 0.07654,-0.06042 0.114464,-0.10296 0.162967,-0.155376 0.0489,-0.05053 0.09523,-0.105936 0.172584,-0.163914"
       style="fill:#211c1d;fill-opacity:1;fill-rule:nonzero;stroke:none;stroke-width:0.01354667"
       id="path906"
       inkscape:connector-curvature="0" />
    <path
       d="m 24.478545,51.09807 c 0.111216,0.280819 0.173803,0.546336 0.267952,0.789904 0.09741,0.242756 0.196563,0.451104 0.482669,0.56774 -0.143184,0.0573 -0.326611,0.01994 -0.458826,-0.08235 -0.13424,-0.101328 -0.221624,-0.244654 -0.276758,-0.388385 -0.05526,-0.145216 -0.08061,-0.295723 -0.08453,-0.444872 -0.0015,-0.149152 0.0136,-0.298568 0.06949,-0.442026"
       style="fill:#211c1d;fill-opacity:1;fill-rule:nonzero;stroke:none;stroke-width:0.01354667"
       id="path908"
       inkscape:connector-curvature="0" />
    <path
       d="m 26.938212,51.417634 c -0.384995,0.445821 -0.721494,0.926592 -1.02223,1.426058 -0.302226,0.498109 -0.562864,1.019117 -0.783675,1.554075 -0.437151,1.071267 -0.70077,2.209325 -0.740189,3.358895 -0.02533,0.574379 0.0072,1.151059 0.08859,1.721376 0.07586,0.571667 0.212005,1.134668 0.379442,1.689403 0.342188,1.108657 0.850188,2.167603 1.439198,3.187803 -0.729218,-0.925374 -1.330418,-1.96481 -1.739798,-3.086474 -0.208754,-0.55934 -0.357496,-1.141712 -0.459096,-1.732619 -0.09659,-0.591989 -0.133984,-1.194408 -0.114192,-1.795069 0.02723,-0.600388 0.109328,-1.198609 0.253864,-1.781115 0.148336,-0.581288 0.345168,-1.15011 0.602961,-1.689405 0.253051,-0.54119 0.560155,-1.055016 0.907491,-1.536598 0.352485,-0.477386 0.738023,-0.932824 1.187637,-1.31633"
       style="fill:#211c1d;fill-opacity:1;fill-rule:nonzero;stroke:none;stroke-width:0.01354667"
       id="path910"
       inkscape:connector-curvature="0" />
    <path
       d="m 32.228864,54.607062 c 0.242484,0.641568 0.476707,1.28314 0.742086,1.906422 0.12992,0.311981 0.265922,0.620978 0.419675,0.913045 0.07816,0.145632 0.154976,0.28692 0.242487,0.41927 l 0.280416,0.429159 c 0.380524,0.574241 0.724747,1.182624 1.026566,1.817283 0.293691,0.63832 0.529946,1.311998 0.673133,2.015339 0.06611,0.351941 0.107568,0.713504 0.117584,1.072355 0.01008,0.352347 0.0093,0.703208 -0.01344,1.052575 -0.04768,0.697924 -0.132352,1.391785 -0.286647,2.071964 -0.146032,0.681124 -0.351401,1.349788 -0.617593,1.993117 -0.273914,0.638592 -0.605672,1.260384 -1.05393,1.787347 l -0.0012,0.0015 c -0.0074,0.0085 -0.02019,0.0094 -0.02859,0.0022 -0.008,-0.0067 -0.0094,-0.01827 -0.0038,-0.0268 0.380119,-0.565435 0.661211,-1.192512 0.885139,-1.835166 0.222436,-0.644144 0.386621,-1.307931 0.505832,-1.978898 0.118528,-0.671102 0.192498,-1.350328 0.219186,-2.031049 0.0229,-0.680451 0.01667,-1.365504 -0.121104,-2.031459 -0.25969,-1.339359 -0.87999,-2.578472 -1.576426,-3.7466 -0.171771,-0.293288 -0.360747,-0.582237 -0.497568,-0.898146 -0.141152,-0.312656 -0.261451,-0.633304 -0.373075,-0.956528 -0.22176,-0.647259 -0.411141,-1.304275 -0.578171,-1.967248 -0.0029,-0.01104 0.0038,-0.02197 0.01456,-0.02466 0.01008,-0.0027 0.02019,0.003 0.02384,0.01248 l 9.22e-4,0.0022"
       style="fill:#211c1d;fill-opacity:1;fill-rule:nonzero;stroke:none;stroke-width:0.01354667"
       id="path912"
       inkscape:connector-curvature="0" />
    <path
       d="m 34.278203,69.400156 c 0.277437,0.09213 0.551349,0.193178 0.821334,0.30697 0.136016,0.05526 0.268901,0.117184 0.402608,0.181931 0.13384,0.06678 0.265109,0.132208 0.4022,0.22704 0.174346,0.138448 0.245195,0.313336 0.287867,0.49039 0.03901,0.178411 0.03184,0.370503 -0.02818,0.551347 -0.05784,0.181663 -0.174075,0.342597 -0.310896,0.464924 -0.13736,0.122736 -0.293556,0.210379 -0.450699,0.275132 -0.315773,0.128688 -0.637641,0.173941 -0.949214,0.184642 -0.31076,0.01232 -0.621656,-0.0098 -0.914943,-0.042 -0.594833,-0.07221 -1.188312,-0.194526 -1.769736,-0.411682 -0.287865,-0.114736 -0.571668,-0.254134 -0.838944,-0.435116 -0.265108,-0.182068 -0.521817,-0.40193 -0.71391,-0.693997 -0.04795,-0.07261 -0.09171,-0.149696 -0.13032,-0.230834 -0.0191,-0.04064 -0.03698,-0.0825 -0.0531,-0.125712 l -0.02317,-0.0657 -0.007,-0.02208 -0.0018,-0.0066 -0.0034,-0.01328 -0.01152,-0.0508 c -0.012,-0.06637 -0.0144,-0.10688 -0.01707,-0.152128 -0.0026,-0.04403 -0.003,-0.0844 -0.0034,-0.124624 -2.75e-4,-0.07952 0.0019,-0.154832 0.0045,-0.229209 0.0093,-0.296536 0.03142,-0.579933 0.04322,-0.863463 0.0128,-0.283128 0.01024,-0.563405 -0.0019,-0.840433 C 29.99745,67.498246 29.96278,67.224742 29.889354,66.967218 29.819174,66.709427 29.70065,66.468701 29.509372,66.290429 29.319617,66.11098 29.047195,66.01263 28.75987,65.988786 l -0.0021,-9.9e-5 c -0.0112,-7.68e-4 -0.0195,-0.01072 -0.01856,-0.02181 8.06e-4,-0.01024 0.0091,-0.01816 0.0191,-0.01854 0.29071,-0.0136 0.596323,0.05094 0.833933,0.231242 0.239369,0.177054 0.395969,0.440942 0.49811,0.712822 0.200762,0.552299 0.232597,1.142935 0.241808,1.720701 0.003,0.29003 -0.0053,0.579931 -0.0075,0.868611 4.23e-4,0.143184 -0.0026,0.290845 0.02114,0.425499 0.03347,0.130864 0.10512,0.260098 0.184235,0.375514 0.162424,0.233138 0.381068,0.424147 0.618812,0.581694 0.238556,0.157824 0.498652,0.282586 0.766334,0.385674 0.536043,0.20767 1.103376,0.330674 1.673962,0.410869 0.2857,0.04024 0.572347,0.06842 0.859808,0.06557 0.28624,-0.0027 0.575326,-0.03414 0.843686,-0.129504 0.265109,-0.09333 0.514502,-0.272419 0.615154,-0.538071 0.05107,-0.130048 0.06475,-0.274184 0.0424,-0.412497 -0.02277,-0.136416 -0.07912,-0.275539 -0.182338,-0.363863 -0.224333,-0.175972 -0.481584,-0.314012 -0.733824,-0.453001 -0.254405,-0.136816 -0.512741,-0.26741 -0.773107,-0.392583 -0.01008,-0.005 -0.0144,-0.01693 -0.0094,-0.0271 0.0045,-0.0093 0.0152,-0.0136 0.02466,-0.0104 l 0.0021,7.68e-4"
       style="fill:#211c1d;fill-opacity:1;fill-rule:nonzero;stroke:none;stroke-width:0.01354667"
       id="path914"
       inkscape:connector-curvature="0" />
    <path
       d="m 30.532009,66.623497 c -0.149824,-0.102 -0.285835,-0.195613 -0.433358,-0.268903 -0.146704,-0.07586 -0.298976,-0.123008 -0.477114,-0.16256 0.170959,-0.06949 0.373346,-0.04158 0.537938,0.04158 0.0825,0.0428 0.158224,0.09714 0.22203,0.163104 0.06366,0.0653 0.118672,0.140208 0.150512,0.226772"
       style="fill:#211c1d;fill-opacity:1;fill-rule:nonzero;stroke:none;stroke-width:0.01354667"
       id="path916"
       inkscape:connector-curvature="0" />
    <path
       d="m 30.363622,70.20442 c -0.665275,0.395294 -1.39395,0.665957 -2.148501,0.849515 -0.377273,0.09726 -0.764845,0.151584 -1.157291,0.191682 -0.393259,0.03114 -0.793021,0.0283 -1.195493,-0.01424 -0.200491,-0.02653 -0.401253,-0.06544 -0.600389,-0.11704 -0.04958,-0.01392 -0.09957,-0.02653 -0.14888,-0.04226 l -0.076,-0.02331 -0.07125,-0.02384 c -0.1012,-0.03494 -0.19927,-0.07234 -0.297889,-0.122736 -0.194259,-0.10024 -0.400576,-0.220807 -0.569639,-0.450965 -0.08195,-0.114336 -0.14752,-0.2666 -0.154704,-0.424827 -0.0078,-0.157952 0.03454,-0.303714 0.0932,-0.420215 0.121792,-0.232731 0.287461,-0.38635 0.460994,-0.509625 0.174888,-0.121376 0.357632,-0.215663 0.546338,-0.28936 0.190872,-0.06909 0.384724,-0.123952 0.584267,-0.147792 0.198051,-0.02454 0.404232,-0.02331 0.59375,0.03618 l 0.003,7.68e-4 c 0.01056,0.0035 0.01653,0.01472 0.01312,0.02534 -0.003,0.0093 -0.012,0.01504 -0.02154,0.01408 -0.184235,-0.02139 -0.372534,0.0093 -0.552838,0.05717 -0.180714,0.04931 -0.355736,0.119488 -0.522496,0.205094 -0.16649,0.08603 -0.325256,0.187623 -0.467903,0.308053 -0.141152,0.12016 -0.270796,0.260774 -0.344355,0.427803 -0.03603,0.08304 -0.05499,0.172992 -0.04646,0.261043 0.0083,0.08805 0.04498,0.17164 0.09944,0.242895 0.110544,0.143184 0.275403,0.240181 0.443653,0.316451 0.341512,0.14928 0.713774,0.22921 1.085224,0.273642 0.746557,0.09102 1.506525,0.03306 2.249558,-0.08982 0.743578,-0.126928 1.478349,-0.316853 2.188464,-0.571802 0.0104,-0.0038 0.02208,0.0015 0.02574,0.01216 0.0034,0.0093 -5.37e-4,0.01936 -0.0085,0.02411 l -0.0027,0.0015"
       style="fill:#211c1d;fill-opacity:1;fill-rule:nonzero;stroke:none;stroke-width:0.01354667"
       id="path918"
       inkscape:connector-curvature="0" />
    <path
       d="m 25.089771,62.47117 c 0.13208,0.611364 0.225686,1.212973 0.315773,1.811191 0.05229,0.298299 0.08494,0.597001 0.138176,0.892454 0.04389,0.296267 0.08805,0.591448 0.144944,0.882973 0.04485,0.293557 0.104992,0.583186 0.169062,0.869696 0.05717,0.288678 0.139264,0.568282 0.220133,0.846666 0.08968,0.274456 0.188299,0.545932 0.327017,0.795867 0.134256,0.253459 0.309813,0.482803 0.557039,0.670152 l 0.004,0.003 c 0.0086,0.0066 0.0104,0.01909 0.0038,0.02792 -0.0056,0.0075 -0.01536,0.0099 -0.02357,0.0066 -0.288274,-0.1188 -0.525746,-0.334195 -0.712013,-0.57817 -0.187494,-0.245456 -0.33136,-0.520315 -0.451114,-0.802763 -0.237336,-0.56747 -0.383912,-1.166776 -0.494452,-1.768654 -0.102544,-0.604181 -0.164727,-1.213781 -0.202794,-1.824192 -0.0367,-0.610552 -0.05189,-1.222045 -0.0367,-1.833815 2.75e-4,-0.01104 0.0094,-0.01978 0.02046,-0.0195 0.0094,3.04e-4 0.0172,0.0069 0.01923,0.01568 l 9.6e-4,0.005"
       style="fill:#211c1d;fill-opacity:1;fill-rule:nonzero;stroke:none;stroke-width:0.01354667"
       id="path920"
       inkscape:connector-curvature="0" />
    <path
       d="m 26.331187,68.85951 c 0.06718,0.09117 0.09768,0.184097 0.124896,0.276756 0.01152,0.04674 0.02317,0.09266 0.03117,0.139536 0.01104,0.04674 0.0128,0.09171 0.03549,0.142784 -0.06056,-0.0074 -0.10336,-0.05798 -0.132752,-0.101456 -0.03088,-0.04552 -0.04958,-0.09536 -0.06448,-0.145216 -0.02478,-0.100928 -0.03278,-0.205228 0.0056,-0.312384"
       style="fill:#211c1d;fill-opacity:1;fill-rule:nonzero;stroke:none;stroke-width:0.01354667"
       id="path922"
       inkscape:connector-curvature="0" />
    <path
       d="m 34.093833,69.370761 c -0.03048,0.07518 -0.07654,0.139808 -0.128016,0.198731 -0.05107,0.0596 -0.110944,0.110944 -0.174345,0.157552 -0.127744,0.08792 -0.285157,0.159168 -0.44826,0.13872 0.135328,-0.08453 0.249936,-0.163781 0.370231,-0.249394 0.120832,-0.08331 0.238693,-0.170688 0.38039,-0.245601"
       style="fill:#211c1d;fill-opacity:1;fill-rule:nonzero;stroke:none;stroke-width:0.01354667"
       id="path924"
       inkscape:connector-curvature="0" />
    <path
       d="m 25.636379,40.700055 c 0,0 -0.08778,-0.654846 0.152,-0.950435 0.239369,-0.295317 0.375243,-0.223654 0.487001,-0.223654 0.11176,0 0.191551,0.06406 0.239642,-0.127616 0.04782,-0.191687 -0.423198,-0.119888 -0.527101,-0.06394 -0.10376,0.05581 -0.590905,0.367249 -0.351536,1.36564"
       style="fill:#211c1d;fill-opacity:1;fill-rule:nonzero;stroke:none;stroke-width:0.01354667"
       id="path926"
       inkscape:connector-curvature="0" />
    <path
       d="m 25.27712,39.805703 c -0.0128,-0.09104 0.0011,-0.18288 0.02818,-0.269984 0.02669,-0.08765 0.07072,-0.170553 0.12816,-0.244382 0.05878,-0.07261 0.131264,-0.136144 0.215526,-0.177869 0.08304,-0.04294 0.176107,-0.06448 0.267141,-0.05866 -0.15552,0.09429 -0.277437,0.192499 -0.376597,0.32065 -0.101056,0.125984 -0.178275,0.270662 -0.2624,0.430243"
       style="fill:#211c1d;fill-opacity:1;fill-rule:nonzero;stroke:none;stroke-width:0.01354667"
       id="path928"
       inkscape:connector-curvature="0" />
    <path
       d="m 33.247438,41.011492 c 0,0 0.399219,-1.046208 -0.127744,-1.213781 -0.527235,-0.167707 -0.247634,-0.335552 -0.127872,-0.335552 0.119744,0 0.958426,0.359394 0.255626,1.549333"
       style="fill:#211c1d;fill-opacity:1;fill-rule:nonzero;stroke:none;stroke-width:0.01354667"
       id="path930"
       inkscape:connector-curvature="0" />
    <path
       d="m 33.614688,39.158714 c 0.09659,0.03197 0.180577,0.09469 0.250072,0.169741 0.07045,0.07506 0.123808,0.166895 0.158896,0.265107 0.06814,0.197781 0.05094,0.421303 -0.04958,0.595512 -0.005,-0.200897 -0.0176,-0.381473 -0.07843,-0.55135 -0.05771,-0.170552 -0.154976,-0.324578 -0.280957,-0.47901"
       style="fill:#211c1d;fill-opacity:1;fill-rule:nonzero;stroke:none;stroke-width:0.01354667"
       id="path932"
       inkscape:connector-curvature="0" />
    <path
       d="m 31.582145,54.396412 c 0.104448,-0.03467 0.215122,-0.04131 0.324037,-0.03467 0.109328,0.0059 0.217288,0.03006 0.321462,0.06544 0.20618,0.07382 0.397866,0.204552 0.516535,0.388518 C 32.5529,54.712194 32.375032,54.620895 32.182398,54.55479 31.99112,54.48597 31.794286,54.439366 31.582145,54.396422"
       style="fill:#211c1d;fill-opacity:1;fill-rule:nonzero;stroke:none;stroke-width:0.01354667"
       id="path934"
       inkscape:connector-curvature="0" />
    <path
       d="m 31.398588,44.450991 c 0.16798,-0.382422 0.276216,-0.793565 0.308052,-1.202808 0.01552,-0.203606 0.0152,-0.407621 -0.01344,-0.594293 -0.02344,-0.184369 -0.106752,-0.356955 -0.178004,-0.368875 -0.05853,-0.03387 -0.228668,0.0252 -0.37172,0.135472 -0.14712,0.107696 -0.287326,0.247091 -0.417238,0.39624 -0.263075,0.298976 -0.482531,0.64577 -0.665954,1.01153 -0.179899,0.364541 -0.327694,0.750891 -0.413715,1.146454 -0.04213,0.197511 -0.06867,0.398813 -0.06165,0.593616 0.007,0.189653 0.05853,0.392583 0.18708,0.4572 0.127872,0.07058 0.332842,-0.0104 0.494453,-0.118128 0.167573,-0.11 0.320109,-0.25224 0.460181,-0.404909 0.279467,-0.308051 0.50231,-0.669476 0.671915,-1.051492 z m 0.0367,0.0172 c -0.186265,0.377274 -0.39204,0.745066 -0.642652,1.088339 -0.126256,0.170688 -0.265516,0.334874 -0.43634,0.474133 -0.08616,0.06814 -0.179899,0.131808 -0.291252,0.174075 -0.10864,0.04146 -0.24804,0.06178 -0.378765,0.0051 l -0.04106,-0.02128 c -0.0136,-0.008 -0.03142,-0.02072 -0.04659,-0.03157 -0.02818,-0.02262 -0.05189,-0.0451 -0.07302,-0.07098 -0.04186,-0.0508 -0.0737,-0.10648 -0.09645,-0.162696 -0.04606,-0.112704 -0.06651,-0.227043 -0.07734,-0.339209 -0.01883,-0.224603 5.37e-4,-0.443789 0.03509,-0.658232 0.07206,-0.429159 0.206992,-0.839757 0.379307,-1.236405 0.172178,-0.393259 0.381474,-0.775546 0.648749,-1.127894 0.136272,-0.174346 0.288003,-0.341242 0.479145,-0.482804 0.09686,-0.06923 0.202524,-0.134784 0.332978,-0.177732 0.126384,-0.04173 0.298974,-0.06178 0.459774,0.01552 l 0.01424,0.0075 0.0021,0.0013 0.0042,0.0026 0.0083,0.0051 0.0168,0.01024 c 0.01568,0.0099 0.03997,0.02778 0.05853,0.04254 0.03454,0.03008 0.06056,0.05784 0.08413,0.08954 0.04659,0.06205 0.07885,0.1272 0.100656,0.190331 0.04336,0.1272 0.05229,0.248853 0.05418,0.365083 -0.0026,0.232731 -0.04904,0.44907 -0.109856,0.657554 -0.126112,0.415476 -0.300872,0.801422 -0.484971,1.17978"
       style="fill:#211c1d;fill-opacity:1;fill-rule:nonzero;stroke:none;stroke-width:0.01354667"
       id="path936"
       inkscape:connector-curvature="0" />
    <path
       d="m 27.395008,43.403156 c -0.04917,-0.379035 -0.156064,-0.752246 -0.316722,-1.092674 -0.07994,-0.169468 -0.170554,-0.333113 -0.273507,-0.472913 -0.05013,-0.06976 -0.107152,-0.132208 -0.160799,-0.175295 -0.02614,-0.02195 -0.05229,-0.03685 -0.07166,-0.04389 -0.0098,-0.0035 -0.01734,-0.0045 -0.02277,-0.0045 -0.0027,1.32e-4 -0.0046,5.38e-4 -0.0066,8.07e-4 9.6e-4,4.22e-4 0.0034,8.06e-4 0.005,4.22e-4 l -0.0172,0.0021 c 0.01008,-0.0019 -0.03645,0.02046 -0.06936,0.07789 -0.0359,0.05474 -0.0699,0.12856 -0.09605,0.207671 -0.05418,0.158496 -0.09035,0.336363 -0.116224,0.515992 -0.05392,0.361696 -0.05811,0.735718 -0.03008,1.111097 0.02994,0.369824 0.09075,0.744119 0.197511,1.099042 0.05392,0.177054 0.119616,0.350993 0.206857,0.507051 0.08344,0.15064 0.209703,0.30507 0.32512,0.295046 0.04485,9.22e-4 0.112304,-0.04485 0.160392,-0.11136 0.05053,-0.06584 0.09226,-0.146848 0.126128,-0.231648 0.06896,-0.170281 0.113664,-0.3556 0.145904,-0.542544 0.06245,-0.375649 0.0619,-0.762812 0.01392,-1.142256 z m 0.0405,-0.0042 c 0.0313,0.383371 0.04931,0.767826 0.03035,1.155802 -0.01088,0.193852 -0.03224,0.388924 -0.08643,0.582507 -0.02818,0.09645 -0.06299,0.193445 -0.121792,0.285697 -0.05878,0.08832 -0.143456,0.189519 -0.295047,0.210652 -0.06178,0.0083 -0.13696,-0.0066 -0.191821,-0.03266 -0.05704,-0.02629 -0.104848,-0.06096 -0.146432,-0.09821 -0.08304,-0.07506 -0.145632,-0.159856 -0.201168,-0.246415 -0.109456,-0.173803 -0.189112,-0.357632 -0.25698,-0.544033 -0.13424,-0.374024 -0.217696,-0.758208 -0.270527,-1.150791 -0.05147,-0.387569 -0.0741,-0.785029 -0.04634,-1.186822 0.01707,-0.201304 0.04715,-0.403962 0.115952,-0.609059 0.03618,-0.102272 0.07885,-0.206316 0.151856,-0.309812 0.07397,-0.09741 0.179629,-0.22203 0.386216,-0.24411 l 0.01869,-4.22e-4 0.04106,8.06e-4 c 0.02221,0.0019 0.04389,0.0051 0.06475,0.0099 0.04173,0.0094 0.07979,0.02426 0.113248,0.04146 0.06693,0.03496 0.118944,0.07789 0.16229,0.121792 0.08629,0.08874 0.141424,0.18437 0.1906,0.278248 0.09374,0.190195 0.148608,0.384184 0.190467,0.578173 0.08034,0.388789 0.117728,0.773785 0.15104,1.157291"
       style="fill:#211c1d;fill-opacity:1;fill-rule:nonzero;stroke:none;stroke-width:0.01354667"
       id="path938"
       inkscape:connector-curvature="0" />
    <path
       d="m 26.556875,42.8365 c 0,0.423333 -0.12056,0.76647 -0.269579,0.76647 -0.148736,0 -0.26958,-0.343137 -0.26958,-0.76647 0,-0.423605 0.120832,-0.766877 0.26958,-0.766877 0.149008,0 0.269579,0.343272 0.269579,0.766877"
       style="fill:#211c1d;fill-opacity:1;fill-rule:nonzero;stroke:none;stroke-width:0.01354667"
       id="path940"
       inkscape:connector-curvature="0" />
    <path
       d="m 30.753496,43.61611 c -0.228668,0.397188 -0.543085,0.64482 -0.70226,0.55311 -0.15904,-0.09157 -0.102544,-0.487814 0.126128,-0.885003 0.228668,-0.397189 0.543087,-0.644823 0.70226,-0.553247 0.15904,0.09171 0.102688,0.487952 -0.126112,0.88514"
       style="fill:#211c1d;fill-opacity:1;fill-rule:nonzero;stroke:none;stroke-width:0.01354667"
       id="path942"
       inkscape:connector-curvature="0" />
    <path
       d="m 29.493792,47.616169 c 0.07627,-0.03197 0.159312,-0.03942 0.241131,-0.03224 0.0825,0.0069 0.164592,0.03306 0.239233,0.07694 0.07328,0.04525 0.137232,0.11136 0.173533,0.189925 0.03766,0.07763 0.04877,0.16432 0.03291,0.244518 -0.0401,-0.07179 -0.07707,-0.135328 -0.12232,-0.188301 -0.04579,-0.05216 -0.09578,-0.09645 -0.154832,-0.130592 -0.116224,-0.07221 -0.255219,-0.112432 -0.409651,-0.160256"
       style="fill:#211c1d;fill-opacity:1;fill-rule:nonzero;stroke:none;stroke-width:0.01354667"
       id="path944"
       inkscape:connector-curvature="0" />
    <path
       d="m 29.957088,47.79187 c -0.04755,0.150496 -0.126928,0.289899 -0.223384,0.416425 -0.09632,0.1268 -0.214716,0.239098 -0.351672,0.327693 -0.137632,0.08643 -0.295724,0.147392 -0.459367,0.160122 -0.163102,0.01456 -0.327017,-0.01816 -0.467089,-0.08968 0.156336,0.0172 0.307779,0.0164 0.45178,-0.01488 0.1436,-0.03184 0.278791,-0.09008 0.4022,-0.16974 0.124768,-0.07789 0.237744,-0.176513 0.344764,-0.28272 0.106208,-0.107696 0.206044,-0.223654 0.302768,-0.3472"
       style="fill:#211c1d;fill-opacity:1;fill-rule:nonzero;stroke:none;stroke-width:0.01354667"
       id="path946"
       inkscape:connector-curvature="0" />
  </g>
</svg>
